<svg width="34" height="34" viewBox="0 0 34 34" fill="none" xmlns="http://www.w3.org/2000/svg">
<g clip-path="url(#clip0_50_14)">
<circle cx="17.0001" cy="17" r="17" fill="#252525"/>
<path d="M5.88184 23.5894C8.31641 23.5894 9.53369 21.7964 9.53369 18.2104V8.11182C9.53369 7.54053 9.41504 7.18457 9.17773 7.04395C8.74707 6.79785 7.95605 6.6748 6.80469 6.6748V5.22461H14.7148V6.6748C13.8799 6.6748 13.335 6.7583 13.0801 6.92529C12.8252 7.0835 12.6626 7.25488 12.5923 7.43945C12.522 7.62402 12.4868 7.84814 12.4868 8.11182L12.5 18.2236C12.5 21.6953 11.2827 23.8926 8.84814 24.8154C8.05713 25.1143 7.18262 25.2637 6.22461 25.2637C4.41406 25.2637 2.9375 24.7979 1.79492 23.8662C0.661133 22.9346 0.0942383 21.7876 0.0942383 20.4253C0.0942383 19.6958 0.300781 19.1025 0.713867 18.6455C1.12695 18.1797 1.63672 17.9468 2.24316 17.9468C2.84961 17.9468 3.3418 18.1445 3.71973 18.54C4.09766 18.9355 4.28662 19.3882 4.28662 19.8979C4.28662 20.3989 4.16357 20.8252 3.91748 21.1768C3.67139 21.5283 3.35498 21.7832 2.96826 21.9414C3.1792 22.4512 3.55273 22.8555 4.08887 23.1543C4.63379 23.4443 5.23145 23.5894 5.88184 23.5894Z" fill="white"/>
<path d="M26.0996 10.9961C26.9688 9.9707 28.0967 9.45801 29.4834 9.45801C29.9521 9.45801 30.3623 9.63379 30.7139 9.98535C31.0752 10.3271 31.2559 10.7568 31.2559 11.2744C31.2559 11.7822 31.0996 12.1875 30.7871 12.4902C30.4844 12.7832 30.1182 12.9297 29.6885 12.9297C29.2588 12.9297 28.8926 12.8076 28.5898 12.5635C28.2969 12.3193 28.1357 11.9434 28.1064 11.4355C27.7549 11.5723 27.4326 11.7773 27.1396 12.0508C27.7256 12.9004 28.0186 13.8623 28.0186 14.9365C28.0186 16.001 27.8525 16.8701 27.5205 17.5439C27.1982 18.208 26.7539 18.7793 26.1875 19.2578C25.6309 19.7266 24.9814 20.0879 24.2393 20.3418C23.4971 20.5957 22.8281 20.7227 22.2324 20.7227C21.6465 20.7227 21.2021 20.708 20.8994 20.6787C20.1963 20.835 19.7227 21.1328 19.4785 21.5723C19.4102 21.6797 19.376 21.8018 19.376 21.9385C19.376 22.2314 19.6396 22.4414 20.167 22.5684C20.6943 22.6953 21.5732 22.8125 22.8037 22.9199C24.0439 23.0176 25.0645 23.1396 25.8652 23.2861C26.6758 23.4229 27.374 23.6426 27.96 23.9453C29.2002 24.5996 29.8203 25.7129 29.8203 27.2852C29.8203 28.8574 29.0537 30.1123 27.5205 31.0498C25.9873 31.9971 24.1123 32.4707 21.8955 32.4707C18.4189 32.4707 16.2461 31.5869 15.377 29.8193C15.1133 29.2822 14.9814 28.6914 14.9814 28.0469C14.9814 26.3867 15.9922 25.0391 18.0137 24.0039C17.3203 23.5938 16.9736 22.959 16.9736 22.0996C16.9736 21.2402 17.5156 20.5664 18.5996 20.0781C17.6816 19.7266 16.959 19.1016 16.4316 18.2031C15.9043 17.2949 15.6406 16.3721 15.6406 15.4346C15.6406 13.6768 16.2705 12.3096 17.5303 11.333C18.7998 10.3467 20.2891 9.85352 21.998 9.85352C23.707 9.85352 25.0742 10.2344 26.0996 10.9961ZM21.8955 19.0381C23.1846 19.0381 24.0781 18.3545 24.5762 16.9873C24.752 16.5186 24.8398 15.9375 24.8398 15.2441C24.8398 13.9551 24.5566 13.0029 23.9902 12.3877C23.4238 11.7725 22.7256 11.4648 21.8955 11.4648C20.5381 11.4648 19.6055 12.1533 19.0977 13.5303C18.9219 14.0283 18.834 14.6191 18.834 15.3027C18.834 16.5527 19.1367 17.4902 19.7422 18.1152C20.3574 18.7305 21.0752 19.0381 21.8955 19.0381ZM19.5811 24.9268C18.6143 25.4443 18.1309 26.3232 18.1309 27.5635C18.1309 28.5889 18.541 29.3701 19.3613 29.9072C20.1816 30.4443 21.2607 30.7129 22.5986 30.7129C24.6982 30.7129 26.0801 30.1562 26.7441 29.043C26.959 28.7012 27.0664 28.3154 27.0664 27.8857C27.0664 26.4697 25.8555 25.6494 23.4336 25.4248C22.6719 25.3467 21.959 25.2783 21.2949 25.2197C20.6309 25.1611 20.0596 25.0635 19.5811 24.9268Z" fill="white"/>
</g>
<defs>
<clipPath id="clip0_50_14">
<rect width="34" height="34" fill="white"/>
</clipPath>
</defs>
</svg>
