<svg width="60" height="60" viewBox="0 0 60 60" fill="none" xmlns="http://www.w3.org/2000/svg">
<g clip-path="url(#clip0_51_20)">
<circle cx="30.0001" cy="29.9999" r="30" fill="white"/>
<path d="M10.3797 41.6283C14.676 41.6283 16.8242 38.4642 16.8242 32.1361V14.315C16.8242 13.3068 16.6148 12.6786 16.196 12.4305C15.436 11.9962 14.0401 11.7791 12.0083 11.7791V9.21989H25.9674V11.7791C24.4939 11.7791 23.5323 11.9264 23.0825 12.2211C22.6327 12.5003 22.3458 12.8027 22.2217 13.1284C22.0976 13.4542 22.0356 13.8497 22.0356 14.315L22.0588 32.1593C22.0588 38.2858 19.9107 42.1634 15.6144 43.7919C14.2185 44.3193 12.6752 44.5829 10.9846 44.5829C7.78952 44.5829 5.18382 43.7609 3.16751 42.1168C1.1667 40.4728 0.166302 38.4487 0.166302 36.0446C0.166302 34.7573 0.530789 33.7104 1.25976 32.9038C1.98874 32.0818 2.88833 31.6708 3.95852 31.6708C5.02872 31.6708 5.89729 32.0198 6.56422 32.7177C7.23116 33.4157 7.56462 34.2144 7.56462 35.114C7.56462 35.9981 7.34748 36.7503 6.9132 37.3707C6.47892 37.9912 5.92055 38.4409 5.23811 38.7201C5.61035 39.6197 6.26953 40.3332 7.21565 40.8605C8.17727 41.3724 9.23196 41.6283 10.3797 41.6283Z" fill="#222222"/>
<path d="M46.0581 19.4049C47.5919 17.5954 49.5824 16.6906 52.0295 16.6906C52.8567 16.6906 53.5805 17.0008 54.2009 17.6212C54.8386 18.2244 55.1574 18.9826 55.1574 19.896C55.1574 20.7922 54.8817 21.5073 54.3302 22.0416C53.796 22.5586 53.1497 22.8171 52.3914 22.8171C51.6332 22.8171 50.9869 22.6017 50.4527 22.1708C49.9357 21.74 49.6513 21.0765 49.5996 20.1804C48.9792 20.4216 48.4105 20.7835 47.8935 21.2661C48.9275 22.7654 49.4445 24.4629 49.4445 26.3586C49.4445 28.237 49.1515 29.7708 48.5656 30.9599C47.9969 32.1318 47.2128 33.1399 46.2132 33.9844C45.2309 34.8116 44.0849 35.4492 42.7752 35.8973C41.4654 36.3454 40.2849 36.5694 39.2337 36.5694C38.1997 36.5694 37.4156 36.5435 36.8813 36.4918C35.6405 36.7676 34.8047 37.2932 34.3739 38.0687C34.2532 38.2583 34.1929 38.4737 34.1929 38.715C34.1929 39.232 34.6582 39.6025 35.5888 39.8265C36.5194 40.0505 38.0704 40.2574 40.2418 40.4469C42.4305 40.6193 44.2314 40.8347 45.6445 41.0932C47.0749 41.3344 48.3071 41.7222 49.3411 42.2564C51.5298 43.4111 52.6241 45.3757 52.6241 48.1503C52.6241 50.9249 51.2713 53.1394 48.5656 54.7938C45.8599 56.4654 42.5511 57.3012 38.6391 57.3012C32.504 57.3012 28.6696 55.7416 27.1358 52.6224C26.6705 51.6745 26.4378 50.6319 26.4378 49.4945C26.4378 46.5648 28.2215 44.1866 31.7888 42.3598C30.5653 41.636 29.9535 40.5159 29.9535 38.9993C29.9535 37.4828 30.9099 36.2937 32.8228 35.432C31.2029 34.8116 29.9276 33.7086 28.997 32.1232C28.0664 30.5204 27.6011 28.8919 27.6011 27.2375C27.6011 24.1355 28.7127 21.7228 30.9358 19.9994C33.1761 18.2588 35.8042 17.3886 38.8201 17.3886C41.8359 17.3886 44.2486 18.0607 46.0581 19.4049ZM38.6391 33.5966C40.9139 33.5966 42.4908 32.3903 43.3697 29.9776C43.6799 29.1504 43.835 28.125 43.835 26.9014C43.835 24.6266 43.3352 22.9463 42.3357 21.8606C41.3362 20.7749 40.104 20.2321 38.6391 20.2321C36.2437 20.2321 34.5979 21.447 33.7017 23.8769C33.3915 24.7559 33.2364 25.7985 33.2364 27.0048C33.2364 29.2107 33.7707 30.8651 34.8392 31.9681C35.9249 33.0538 37.1915 33.5966 38.6391 33.5966ZM34.5548 43.9884C32.8487 44.9018 31.9956 46.4528 31.9956 48.6414C31.9956 50.4509 32.7194 51.8296 34.167 52.7775C35.6147 53.7253 37.519 54.1992 39.8799 54.1992C43.5851 54.1992 46.0237 53.2169 47.1955 51.2523C47.5747 50.6491 47.7642 49.9684 47.7642 49.2101C47.7642 46.7113 45.6273 45.2637 41.3534 44.8673C40.0092 44.7294 38.7511 44.6088 37.5793 44.5054C36.4074 44.402 35.3992 44.2297 34.5548 43.9884Z" fill="#222222"/>
</g>
<defs>
<clipPath id="clip0_51_20">
<rect width="60" height="60" fill="white"/>
</clipPath>
</defs>
</svg>
